<svg width="24" height="24" viewBox="0 0 24 24" fill="none" xmlns="http://www.w3.org/2000/svg">
<path d="M24 12C24 18.629 18.629 24 12 24C5.37097 24 0 18.629 0 12C0 5.37581 5.37097 0 12 0C18.629 0 24 5.37581 24 12ZM12 14.4194C10.771 14.4194 9.77419 15.4161 9.77419 16.6452C9.77419 17.8742 10.771 18.871 12 18.871C13.229 18.871 14.2258 17.8742 14.2258 16.6452C14.2258 15.4161 13.229 14.4194 12 14.4194ZM9.88548 6.42097L10.2435 13.0016C10.2581 13.3113 10.5145 13.5484 10.8242 13.5484H13.171C13.4806 13.5484 13.7323 13.3065 13.7516 13.0016L14.1097 6.42097C14.129 6.0871 13.8629 5.80645 13.529 5.80645H10.4613C10.1274 5.80645 9.86129 6.0871 9.88064 6.42097H9.88548Z" fill="black"/>
</svg>
