<svg width="24" height="22" viewBox="0 0 24 22" fill="none" xmlns="http://www.w3.org/2000/svg">
<path d="M23.7291 18.3611C24.5 19.6964 23.5332 21.3656 21.9956 21.3656H2.00263C0.465025 21.3656 -0.49754 19.6922 0.269178 18.3611L10.2657 1.00151C11.0366 -0.333837 12.9617 -0.333837 13.7326 1.00151L23.7291 18.3611ZM11.9991 14.7723C10.9407 14.7723 10.0823 15.6319 10.0823 16.6919C10.0823 17.7518 10.9407 18.6114 11.9991 18.6114C13.0575 18.6114 13.9159 17.7518 13.9159 16.6919C13.9159 15.6319 13.0575 14.7723 11.9991 14.7723ZM10.1782 7.87439L10.4865 13.5496C10.499 13.8167 10.7199 14.0212 10.9866 14.0212H13.0075C13.2742 14.0212 13.4909 13.8125 13.5076 13.5496L13.8159 7.87439C13.8326 7.58646 13.6034 7.34442 13.3159 7.34442H10.674C10.3865 7.34442 10.1573 7.58646 10.174 7.87439H10.1782Z" fill="black" fill-opacity="0.5"/>
</svg>
